<svg width="295" height="64" viewBox="0 0 295 64" fill="none" xmlns="http://www.w3.org/2000/svg">
<rect width="295" height="64" rx="32" fill="#04D361"/>
<path d="M36.3848 24.7812V39H33.4648V24.7812H36.3848ZM50.7012 24.7812V39H47.7715L42.0586 29.4688V39H39.1289V24.7812H42.0586L47.7812 34.3223V24.7812H50.7012ZM60.6523 35.2793C60.6523 35.0254 60.6133 34.7975 60.5352 34.5957C60.4635 34.3874 60.3268 34.1986 60.125 34.0293C59.9232 33.8535 59.64 33.681 59.2754 33.5117C58.9108 33.3424 58.4388 33.1667 57.8594 32.9844C57.2148 32.776 56.6029 32.5417 56.0234 32.2812C55.4505 32.0208 54.9427 31.7181 54.5 31.373C54.0638 31.0215 53.7188 30.6146 53.4648 30.1523C53.2174 29.6901 53.0938 29.153 53.0938 28.541C53.0938 27.9486 53.224 27.4115 53.4844 26.9297C53.7448 26.4414 54.1094 26.0247 54.5781 25.6797C55.0469 25.3281 55.6003 25.0579 56.2383 24.8691C56.8828 24.6803 57.5892 24.5859 58.3574 24.5859C59.4056 24.5859 60.3203 24.7747 61.1016 25.1523C61.8828 25.5299 62.4883 26.0475 62.918 26.7051C63.3542 27.3626 63.5723 28.1146 63.5723 28.9609H60.6621C60.6621 28.5443 60.5742 28.1797 60.3984 27.8672C60.2292 27.5482 59.9688 27.2975 59.6172 27.1152C59.2721 26.9329 58.8359 26.8418 58.3086 26.8418C57.8008 26.8418 57.3776 26.9199 57.0391 27.0762C56.7005 27.2259 56.4466 27.431 56.2773 27.6914C56.1081 27.9453 56.0234 28.2318 56.0234 28.5508C56.0234 28.7917 56.082 29.0098 56.1992 29.2051C56.3229 29.4004 56.5052 29.5827 56.7461 29.752C56.987 29.9212 57.2832 30.0807 57.6348 30.2305C57.9863 30.3802 58.3932 30.5267 58.8555 30.6699C59.6302 30.9043 60.3105 31.168 60.8965 31.4609C61.4889 31.7539 61.9837 32.0827 62.3809 32.4473C62.778 32.8118 63.0775 33.2253 63.2793 33.6875C63.4811 34.1497 63.582 34.6738 63.582 35.2598C63.582 35.8783 63.4616 36.4316 63.2207 36.9199C62.9798 37.4082 62.6315 37.8216 62.1758 38.1602C61.7201 38.4987 61.1764 38.7559 60.5449 38.9316C59.9134 39.1074 59.207 39.1953 58.4258 39.1953C57.7227 39.1953 57.0293 39.1042 56.3457 38.9219C55.6621 38.7331 55.0404 38.4499 54.4805 38.0723C53.9271 37.6947 53.4844 37.2129 53.1523 36.627C52.8203 36.041 52.6543 35.3477 52.6543 34.5469H55.5938C55.5938 34.9896 55.6621 35.3639 55.7988 35.6699C55.9355 35.9759 56.1276 36.2233 56.375 36.4121C56.6289 36.6009 56.9284 36.7376 57.2734 36.8223C57.625 36.9069 58.0091 36.9492 58.4258 36.9492C58.9336 36.9492 59.3503 36.8776 59.6758 36.7344C60.0078 36.5911 60.252 36.3926 60.4082 36.1387C60.571 35.8848 60.6523 35.5983 60.6523 35.2793ZM73.8164 34.2832H76.7363C76.6777 35.2402 76.4141 36.0898 75.9453 36.832C75.4831 37.5742 74.8353 38.1536 74.002 38.5703C73.1751 38.987 72.179 39.1953 71.0137 39.1953C70.1022 39.1953 69.2852 39.0391 68.5625 38.7266C67.8398 38.4076 67.2214 37.9518 66.707 37.3594C66.1992 36.7669 65.8118 36.0508 65.5449 35.2109C65.278 34.3711 65.1445 33.4303 65.1445 32.3887V31.4023C65.1445 30.3607 65.2812 29.4199 65.5547 28.5801C65.8346 27.7337 66.2318 27.0143 66.7461 26.4219C67.2669 25.8294 67.8887 25.3737 68.6113 25.0547C69.334 24.7357 70.1413 24.5762 71.0332 24.5762C72.2181 24.5762 73.2174 24.791 74.0312 25.2207C74.8516 25.6504 75.4863 26.2428 75.9355 26.998C76.3913 27.7533 76.6647 28.6126 76.7559 29.5762H73.8262C73.7936 29.0033 73.6797 28.5182 73.4844 28.1211C73.2891 27.7174 72.9928 27.4147 72.5957 27.2129C72.2051 27.0046 71.6842 26.9004 71.0332 26.9004C70.5449 26.9004 70.1185 26.9915 69.7539 27.1738C69.3893 27.3561 69.0833 27.6328 68.8359 28.0039C68.5885 28.375 68.403 28.8438 68.2793 29.4102C68.1621 29.9701 68.1035 30.6276 68.1035 31.3828V32.3887C68.1035 33.1243 68.1589 33.7721 68.2695 34.332C68.3802 34.8854 68.5495 35.3542 68.7773 35.7383C69.0117 36.1159 69.3112 36.4023 69.6758 36.5977C70.0469 36.7865 70.4928 36.8809 71.0137 36.8809C71.6257 36.8809 72.1302 36.7832 72.5273 36.5879C72.9245 36.3926 73.2272 36.1029 73.4355 35.7188C73.6504 35.3346 73.7773 34.8561 73.8164 34.2832ZM78.6602 24.7812H83.9629C85.0501 24.7812 85.9844 24.944 86.7656 25.2695C87.5534 25.5951 88.1589 26.0768 88.582 26.7148C89.0052 27.3529 89.2168 28.1374 89.2168 29.0684C89.2168 29.8301 89.0866 30.4844 88.8262 31.0312C88.5723 31.5716 88.2109 32.0241 87.7422 32.3887C87.2799 32.7467 86.7363 33.0332 86.1113 33.248L85.1836 33.7363H80.5742L80.5547 31.4512H83.9824C84.4967 31.4512 84.9232 31.36 85.2617 31.1777C85.6003 30.9954 85.8542 30.7415 86.0234 30.416C86.1992 30.0905 86.2871 29.7129 86.2871 29.2832C86.2871 28.8275 86.2025 28.4336 86.0332 28.1016C85.8639 27.7695 85.6068 27.5156 85.2617 27.3398C84.9167 27.1641 84.4837 27.0762 83.9629 27.0762H81.5898V39H78.6602V24.7812ZM86.6094 39L83.3672 32.6621L86.4629 32.6426L89.7441 38.8633V39H86.6094ZM101.014 36.7148V39H93.4453V36.7148H101.014ZM94.4023 24.7812V39H91.4727V24.7812H94.4023ZM100.027 30.5723V32.7988H93.4453V30.5723H100.027ZM101.004 24.7812V27.0762H93.4453V24.7812H101.004ZM107.85 36.0312L111.199 24.7812H114.461L109.51 39H107.361L107.85 36.0312ZM104.764 24.7812L108.104 36.0312L108.611 39H106.443L101.521 24.7812H104.764ZM120.828 27.2129L116.961 39H113.846L119.129 24.7812H121.111L120.828 27.2129ZM124.041 39L120.164 27.2129L119.852 24.7812H121.854L127.166 39H124.041ZM123.865 33.707V36.002H116.355V33.707H123.865ZM133.855 31.793V34H128.338V31.793H133.855ZM143.777 35.2793C143.777 35.0254 143.738 34.7975 143.66 34.5957C143.589 34.3874 143.452 34.1986 143.25 34.0293C143.048 33.8535 142.765 33.681 142.4 33.5117C142.036 33.3424 141.564 33.1667 140.984 32.9844C140.34 32.776 139.728 32.5417 139.148 32.2812C138.576 32.0208 138.068 31.7181 137.625 31.373C137.189 31.0215 136.844 30.6146 136.59 30.1523C136.342 29.6901 136.219 29.153 136.219 28.541C136.219 27.9486 136.349 27.4115 136.609 26.9297C136.87 26.4414 137.234 26.0247 137.703 25.6797C138.172 25.3281 138.725 25.0579 139.363 24.8691C140.008 24.6803 140.714 24.5859 141.482 24.5859C142.531 24.5859 143.445 24.7747 144.227 25.1523C145.008 25.5299 145.613 26.0475 146.043 26.7051C146.479 27.3626 146.697 28.1146 146.697 28.9609H143.787C143.787 28.5443 143.699 28.1797 143.523 27.8672C143.354 27.5482 143.094 27.2975 142.742 27.1152C142.397 26.9329 141.961 26.8418 141.434 26.8418C140.926 26.8418 140.503 26.9199 140.164 27.0762C139.826 27.2259 139.572 27.431 139.402 27.6914C139.233 27.9453 139.148 28.2318 139.148 28.5508C139.148 28.7917 139.207 29.0098 139.324 29.2051C139.448 29.4004 139.63 29.5827 139.871 29.752C140.112 29.9212 140.408 30.0807 140.76 30.2305C141.111 30.3802 141.518 30.5267 141.98 30.6699C142.755 30.9043 143.436 31.168 144.021 31.4609C144.614 31.7539 145.109 32.0827 145.506 32.4473C145.903 32.8118 146.202 33.2253 146.404 33.6875C146.606 34.1497 146.707 34.6738 146.707 35.2598C146.707 35.8783 146.587 36.4316 146.346 36.9199C146.105 37.4082 145.757 37.8216 145.301 38.1602C144.845 38.4987 144.301 38.7559 143.67 38.9316C143.038 39.1074 142.332 39.1953 141.551 39.1953C140.848 39.1953 140.154 39.1042 139.471 38.9219C138.787 38.7331 138.165 38.4499 137.605 38.0723C137.052 37.6947 136.609 37.2129 136.277 36.627C135.945 36.041 135.779 35.3477 135.779 34.5469H138.719C138.719 34.9896 138.787 35.3639 138.924 35.6699C139.061 35.9759 139.253 36.2233 139.5 36.4121C139.754 36.6009 140.053 36.7376 140.398 36.8223C140.75 36.9069 141.134 36.9492 141.551 36.9492C142.059 36.9492 142.475 36.8776 142.801 36.7344C143.133 36.5911 143.377 36.3926 143.533 36.1387C143.696 35.8848 143.777 35.5983 143.777 35.2793ZM158.24 36.7148V39H150.672V36.7148H158.24ZM151.629 24.7812V39H148.699V24.7812H151.629ZM157.254 30.5723V32.7988H150.672V30.5723H157.254ZM158.23 24.7812V27.0762H150.672V24.7812H158.23ZM170.711 27.2129L166.844 39H163.729L169.012 24.7812H170.994L170.711 27.2129ZM173.924 39L170.047 27.2129L169.734 24.7812H171.736L177.049 39H173.924ZM173.748 33.707V36.002H166.238V33.707H173.748ZM189.461 31.5684V37.2031C189.24 37.4701 188.898 37.7598 188.436 38.0723C187.973 38.3783 187.378 38.6419 186.648 38.8633C185.919 39.0846 185.037 39.1953 184.002 39.1953C183.084 39.1953 182.247 39.0456 181.492 38.7461C180.737 38.4401 180.086 37.9941 179.539 37.4082C178.999 36.8223 178.582 36.1061 178.289 35.2598C177.996 34.4069 177.85 33.4336 177.85 32.3398V31.4512C177.85 30.3574 177.99 29.3841 178.27 28.5312C178.556 27.6784 178.963 26.959 179.49 26.373C180.018 25.7871 180.646 25.3411 181.375 25.0352C182.104 24.7292 182.915 24.5762 183.807 24.5762C185.044 24.5762 186.059 24.778 186.854 25.1816C187.648 25.5788 188.253 26.1322 188.67 26.8418C189.093 27.5449 189.354 28.3522 189.451 29.2637H186.609C186.538 28.7819 186.401 28.362 186.199 28.0039C185.997 27.6458 185.708 27.3659 185.33 27.1641C184.959 26.9622 184.477 26.8613 183.885 26.8613C183.396 26.8613 182.96 26.9622 182.576 27.1641C182.199 27.3594 181.88 27.6491 181.619 28.0332C181.359 28.4173 181.16 28.8926 181.023 29.459C180.887 30.0254 180.818 30.6829 180.818 31.4316V32.3398C180.818 33.082 180.89 33.7396 181.033 34.3125C181.176 34.8789 181.388 35.3574 181.668 35.748C181.954 36.1322 182.306 36.4219 182.723 36.6172C183.139 36.8125 183.624 36.9102 184.178 36.9102C184.64 36.9102 185.024 36.8711 185.33 36.793C185.643 36.7148 185.893 36.6204 186.082 36.5098C186.277 36.3926 186.427 36.2819 186.531 36.1777V33.6582H183.855V31.5684H189.461ZM203.504 31.5586V32.2324C203.504 33.3132 203.357 34.2832 203.064 35.1426C202.771 36.002 202.358 36.7344 201.824 37.3398C201.29 37.9388 200.652 38.3978 199.91 38.7168C199.174 39.0358 198.357 39.1953 197.459 39.1953C196.567 39.1953 195.75 39.0358 195.008 38.7168C194.272 38.3978 193.634 37.9388 193.094 37.3398C192.553 36.7344 192.133 36.002 191.834 35.1426C191.541 34.2832 191.395 33.3132 191.395 32.2324V31.5586C191.395 30.4714 191.541 29.5013 191.834 28.6484C192.127 27.7891 192.54 27.0566 193.074 26.4512C193.615 25.8457 194.253 25.3835 194.988 25.0645C195.73 24.7454 196.548 24.5859 197.439 24.5859C198.338 24.5859 199.155 24.7454 199.891 25.0645C200.633 25.3835 201.271 25.8457 201.805 26.4512C202.345 27.0566 202.762 27.7891 203.055 28.6484C203.354 29.5013 203.504 30.4714 203.504 31.5586ZM200.545 32.2324V31.5391C200.545 30.7839 200.477 30.1198 200.34 29.5469C200.203 28.974 200.001 28.4922 199.734 28.1016C199.467 27.7109 199.142 27.418 198.758 27.2227C198.374 27.0208 197.934 26.9199 197.439 26.9199C196.945 26.9199 196.505 27.0208 196.121 27.2227C195.743 27.418 195.421 27.7109 195.154 28.1016C194.894 28.4922 194.695 28.974 194.559 29.5469C194.422 30.1198 194.354 30.7839 194.354 31.5391V32.2324C194.354 32.9811 194.422 33.6452 194.559 34.2246C194.695 34.7975 194.897 35.2826 195.164 35.6797C195.431 36.0703 195.757 36.3665 196.141 36.5684C196.525 36.7702 196.964 36.8711 197.459 36.8711C197.954 36.8711 198.393 36.7702 198.777 36.5684C199.161 36.3665 199.484 36.0703 199.744 35.6797C200.005 35.2826 200.203 34.7975 200.34 34.2246C200.477 33.6452 200.545 32.9811 200.545 32.2324ZM205.613 24.7812H210.916C212.003 24.7812 212.938 24.944 213.719 25.2695C214.507 25.5951 215.112 26.0768 215.535 26.7148C215.958 27.3529 216.17 28.1374 216.17 29.0684C216.17 29.8301 216.04 30.4844 215.779 31.0312C215.525 31.5716 215.164 32.0241 214.695 32.3887C214.233 32.7467 213.689 33.0332 213.064 33.248L212.137 33.7363H207.527L207.508 31.4512H210.936C211.45 31.4512 211.876 31.36 212.215 31.1777C212.553 30.9954 212.807 30.7415 212.977 30.416C213.152 30.0905 213.24 29.7129 213.24 29.2832C213.24 28.8275 213.156 28.4336 212.986 28.1016C212.817 27.7695 212.56 27.5156 212.215 27.3398C211.87 27.1641 211.437 27.0762 210.916 27.0762H208.543V39H205.613V24.7812ZM213.562 39L210.32 32.6621L213.416 32.6426L216.697 38.8633V39H213.562ZM224.207 27.2129L220.34 39H217.225L222.508 24.7812H224.49L224.207 27.2129ZM227.42 39L223.543 27.2129L223.23 24.7812H225.232L230.545 39H227.42ZM227.244 33.707V36.002H219.734V33.707H227.244Z" fill="#09090A"/>
<path d="M32 40.9531H230.594V41.9297H32V40.9531Z" fill="#09090A"/>
<a href="https://www.rocketseat.com.br/nlw?utm_source=figma&#38;utm_medium=organic&#38;utm_campaign=lead&#38;utm_term=nlw&#38;utm_content=banner_projeto_nlw12-lp_nlw">
<rect fill="black" fill-opacity="0" y="4.28125" width="198.594" height="23.4375"/>
</a>
<g clip-path="url(#clip0_329_386)">
<path d="M245 38L257 26" stroke="#09090A" stroke-width="2" stroke-linecap="round" stroke-linejoin="round"/>
<path d="M247.25 26H257V35.75" stroke="#09090A" stroke-width="2" stroke-linecap="round" stroke-linejoin="round"/>
</g>
<defs>
<clipPath id="clip0_329_386">
<rect width="24" height="24" fill="white" transform="translate(239 20)"/>
</clipPath>
</defs>
</svg>
